<svg width="32" height="32" viewBox="0 0 32 32" fill="none" xmlns="http://www.w3.org/2000/svg">
<path d="M15.6601 14.87C15.5601 14.86 15.4401 14.86 15.3301 14.87C12.9501 14.79 11.0601 12.84 11.0601 10.44C11.0601 7.99 13.0401 6 15.5001 6C17.9501 6 19.9401 7.99 19.9401 10.44C19.9301 12.84 18.0401 14.79 15.6601 14.87Z" stroke="#939393" stroke-width="1.5" stroke-linecap="round" stroke-linejoin="round"/>
<path d="M10.66 18.56C8.23997 20.18 8.23997 22.82 10.66 24.43C13.41 26.27 17.92 26.27 20.67 24.43C23.09 22.81 23.09 20.17 20.67 18.56C17.93 16.73 13.42 16.73 10.66 18.56Z" stroke="#939393" stroke-width="1.5" stroke-linecap="round" stroke-linejoin="round"/>
</svg>
