<svg width="16" height="16" viewBox="0 0 16 16" fill="none" xmlns="http://www.w3.org/2000/svg">
<path d="M9.00917 3.04751L10.0358 5.10084C10.1758 5.38668 10.5492 5.66084 10.8642 5.71334L12.725 6.02251C13.915 6.22084 14.195 7.08418 13.3375 7.93584L11.8908 9.38251C11.6458 9.62751 11.5117 10.1 11.5875 10.4383L12.0017 12.2292C12.3283 13.6467 11.5758 14.195 10.3217 13.4542L8.57751 12.4217C8.26251 12.235 7.74334 12.235 7.42251 12.4217L5.67834 13.4542C4.43001 14.195 3.67167 13.6408 3.99834 12.2292L4.41251 10.4383C4.48834 10.1 4.35417 9.62751 4.10917 9.38251L2.66251 7.93584C1.81084 7.08418 2.08501 6.22084 3.27501 6.02251L5.13584 5.71334C5.44501 5.66084 5.81834 5.38668 5.95834 5.10084L6.98501 3.04751C7.54501 1.93334 8.45501 1.93334 9.00917 3.04751Z" fill="#FFD33C"/>
</svg>
