<svg width="20" height="20" viewBox="0 0 20 20" fill="none" xmlns="http://www.w3.org/2000/svg">
<g clip-path="url(#clip0_3332_166)">
<path d="M13.6553 0.0731277C13.5771 0.116096 13.4717 0.213753 13.4209 0.295784C13.331 0.444221 13.331 0.452034 13.3193 1.87782L13.3076 3.3075L12.8506 3.33485C11.5654 3.40516 10.499 3.6786 9.44432 4.21766C6.95604 5.48328 5.31151 7.89344 5.03026 10.6942C4.97166 11.3036 4.97948 12.7802 5.04588 12.9364C5.19823 13.3075 5.70213 13.4325 6.00291 13.1747C6.06541 13.1239 6.19041 12.9442 6.28416 12.7763C7.27244 10.9638 8.9326 9.73328 10.9873 9.29188C11.3037 9.22157 11.5576 9.20203 12.3428 9.18641L13.3076 9.16688L13.3193 10.6044C13.331 12.038 13.331 12.0458 13.4248 12.1942C13.6006 12.4755 14.0029 12.577 14.2685 12.4013C14.4482 12.2841 19.8818 6.6161 19.9365 6.4911C20.0068 6.33094 20.0068 6.15907 19.9365 5.99891C19.8818 5.87 14.4482 0.20594 14.2646 0.0887527C14.1123 -0.0128098 13.8271 -0.0206223 13.6553 0.0731277Z" fill="white"/>
<path d="M2.10059 3.3583C1.19434 3.49112 0.381836 4.20596 0.100586 5.11221L0.0107422 5.40518V11.6747V17.9442L0.0966797 18.2177C0.217773 18.6005 0.436523 18.956 0.733398 19.2528C1.03027 19.5458 1.31152 19.7216 1.71777 19.87L2.00293 19.9755L9.8623 19.9872C18.6514 19.9989 18.0186 20.0185 18.6201 19.7138C19.1904 19.4286 19.667 18.87 19.8857 18.2372L19.9717 17.9833L19.9834 14.37C19.9912 11.5927 19.9834 10.7177 19.9482 10.581C19.8467 10.2216 19.4326 9.95596 19.0537 10.0067C18.8115 10.038 18.5654 10.206 18.4404 10.4169L18.3311 10.6005L18.3115 14.1981L18.292 17.7958L18.1865 17.9481C18.1279 18.0302 18.0146 18.1435 17.9326 18.1981L17.7881 18.2958H9.99121H2.19043L2.03809 18.1903C1.95605 18.1317 1.84277 18.0185 1.78809 17.9364L1.69043 17.7919L1.67871 11.706C1.6709 5.77236 1.6709 5.61611 1.74512 5.47158C1.84277 5.28408 2.00293 5.13174 2.18652 5.05752C2.30762 5.00283 2.55762 4.99502 3.74121 4.99502C4.9248 4.99502 5.1748 4.98721 5.2959 4.93252C5.60449 4.80361 5.81152 4.50283 5.81152 4.17471C5.81152 3.83096 5.66309 3.58096 5.3623 3.4208C5.20996 3.33877 5.15918 3.33487 3.78027 3.33096C2.99512 3.32705 2.24121 3.33877 2.10059 3.3583Z" fill="white"/>
</g>
<defs>
<clipPath id="clip0_3332_166">
<rect width="20" height="20" fill="white"/>
</clipPath>
</defs>
</svg>
